<?xml version="1.0" standalone="no"?>
<!DOCTYPE svg PUBLIC "-//W3C//DTD SVG 20010904//EN"
 "http://www.w3.org/TR/2001/REC-SVG-20010904/DTD/svg10.dtd">
<svg version="1.0" xmlns="http://www.w3.org/2000/svg"
 width="100%" viewBox="0 0 1300.000000 1300.000000"
 preserveAspectRatio="xMidYMid meet">

<g transform="translate(210.000000,1300.000000) scale(0.0700000,-0.0700000)"
fill="#000000" stroke="none">
<path d="M6444 11010 c-61 -5 -135 -13 -165 -18 -30 -6 -76 -14 -104 -17 -79
-10 -384 -91 -450 -118 -33 -14 -107 -44 -164 -66 -57 -23 -138 -62 -180 -87
-121 -72 -348 -247 -444 -342 -108 -106 -217 -259 -253 -355 -14 -40 -57 -137
-95 -217 -93 -197 -158 -412 -224 -745 -29 -148 -56 -299 -60 -335 -24 -251
-43 -338 -97 -444 -44 -89 -65 -112 -249 -277 -131 -117 -183 -171 -225 -233
-30 -45 -68 -101 -85 -126 -17 -25 -54 -88 -83 -140 -44 -82 -57 -98 -97 -119
-25 -13 -58 -41 -73 -63 -15 -21 -46 -48 -69 -59 -23 -12 -76 -54 -117 -93
-41 -40 -107 -93 -145 -118 -51 -32 -104 -82 -190 -179 -146 -163 -233 -269
-270 -329 -16 -25 -47 -70 -69 -100 -54 -74 -165 -271 -203 -362 -52 -122
-100 -282 -243 -798 -49 -179 -114 -289 -334 -573 -72 -92 -174 -230 -226
-305 -52 -76 -107 -154 -122 -173 -14 -19 -45 -68 -69 -109 -23 -41 -59 -100
-79 -130 -162 -239 -416 -726 -506 -971 -70 -190 -124 -348 -124 -364 0 -8
-18 -70 -39 -138 -53 -165 -91 -339 -140 -642 -23 -137 -48 -286 -56 -330 -8
-44 -21 -161 -30 -260 -8 -99 -20 -218 -25 -265 -6 -47 -17 -197 -25 -335 -9
-137 -20 -292 -26 -343 -5 -51 -8 -145 -7 -210 l3 -117 226 -3 226 -2 7 467
c4 258 11 504 16 548 5 44 16 154 25 245 33 348 92 766 126 900 5 19 20 91 34
160 14 69 30 133 35 142 6 10 10 30 10 45 0 26 27 133 65 263 9 30 19 66 22
80 3 14 9 30 14 36 5 6 15 39 23 75 8 35 27 100 41 144 14 44 30 98 36 120 6
22 19 57 30 77 10 20 19 44 19 52 0 9 11 39 24 69 14 29 31 71 39 92 31 85
127 303 161 365 19 36 43 81 53 100 10 19 23 40 28 46 6 6 19 31 30 55 11 24
28 53 39 64 10 11 29 43 42 70 29 60 37 74 90 145 23 30 48 69 57 87 9 17 20
33 25 35 12 4 76 106 98 153 10 22 52 96 94 165 107 174 188 323 207 378 18
53 68 245 89 341 7 35 20 71 28 80 8 9 26 43 41 76 14 33 43 80 63 105 21 25
46 62 57 83 11 22 50 75 88 119 37 44 67 84 67 88 0 4 18 27 40 50 22 23 40
45 40 49 0 3 28 29 63 56 34 28 82 71 107 96 25 25 66 60 92 77 26 18 53 40
60 50 7 9 24 25 38 33 14 9 41 30 60 47 19 17 58 43 85 58 28 15 66 39 85 53
52 39 149 104 183 123 17 9 46 32 66 51 20 19 46 40 58 46 12 6 59 43 104 82
45 39 93 78 106 86 14 9 60 50 102 92 104 101 257 234 280 242 9 4 31 21 48
38 18 17 35 31 38 31 4 0 27 14 52 30 24 17 61 39 81 49 50 26 122 95 122 118
0 38 -56 57 -187 61 -131 4 -204 -10 -283 -57 -8 -4 -46 -23 -85 -42 -38 -18
-83 -44 -100 -57 -16 -12 -55 -43 -86 -67 -63 -49 -148 -99 -156 -92 -17 18
216 381 269 417 36 25 57 45 225 208 97 95 117 120 156 198 60 120 67 152 101
452 9 73 25 177 36 230 11 53 25 122 30 152 33 198 121 492 183 615 25 50 31
57 37 40 11 -30 3 -283 -10 -340 -22 -94 -50 -290 -71 -500 -31 -314 -18 -486
46 -613 39 -79 61 -101 133 -135 68 -33 77 -34 267 -48 234 -16 243 -17 254
-23 5 -4 44 -11 87 -16 99 -13 205 -39 224 -55 8 -7 47 -23 87 -34 40 -12 75
-26 78 -30 3 -5 31 -17 63 -26 31 -9 80 -27 107 -40 28 -12 74 -25 104 -29 30
-4 64 -12 75 -19 80 -44 624 -48 806 -5 25 5 70 14 100 18 68 11 195 48 242
71 10 5 25 9 34 9 18 0 68 20 137 55 26 14 54 25 62 25 8 0 15 4 15 9 0 26
126 43 440 60 111 6 165 13 187 25 18 9 39 16 47 16 26 0 103 54 122 85 60 98
94 437 69 696 -7 69 -15 130 -18 136 -23 37 -30 553 -8 553 3 0 16 -30 28 -67
38 -114 90 -287 95 -313 21 -104 186 -759 205 -815 44 -122 143 -277 257 -399
84 -91 146 -167 196 -241 78 -116 167 -220 231 -271 38 -30 69 -57 69 -59 0
-7 -55 13 -130 47 -41 19 -88 38 -105 42 -16 4 -53 18 -81 32 -48 23 -121 45
-254 78 -30 8 -69 20 -86 27 -22 9 -46 10 -85 3 -48 -8 -54 -12 -57 -36 -3
-27 40 -108 57 -108 5 0 33 -23 63 -51 29 -27 76 -66 103 -85 28 -19 71 -51
96 -72 119 -97 151 -122 160 -122 5 0 31 -17 58 -37 27 -21 88 -64 137 -96
136 -89 244 -166 322 -229 39 -32 73 -58 76 -58 8 0 86 -60 111 -85 11 -11 55
-47 98 -79 88 -66 320 -279 418 -383 69 -73 157 -188 199 -258 13 -22 33 -51
46 -65 24 -27 304 -578 304 -599 0 -7 33 -94 74 -194 40 -100 77 -193 81 -207
4 -14 16 -31 26 -38 11 -7 19 -19 19 -25 0 -11 25 -59 123 -247 37 -72 61
-110 70 -110 4 0 7 -9 7 -19 0 -11 10 -32 23 -48 28 -36 44 -62 58 -93 6 -14
18 -34 28 -45 19 -21 37 -52 70 -123 12 -24 34 -62 49 -85 16 -23 41 -67 56
-97 15 -30 43 -84 61 -120 19 -36 34 -70 35 -76 0 -6 6 -17 14 -24 8 -6 25
-42 37 -78 12 -37 30 -77 40 -90 10 -13 20 -36 24 -51 3 -16 15 -46 26 -67 10
-21 19 -43 19 -50 0 -6 11 -45 24 -85 60 -190 121 -405 145 -519 7 -30 20 -84
31 -120 23 -79 33 -119 60 -235 11 -49 37 -155 56 -235 50 -199 81 -354 105
-520 6 -41 13 -78 15 -82 3 -4 10 -43 15 -85 6 -43 15 -107 20 -143 5 -36 13
-99 19 -140 5 -41 14 -106 19 -145 19 -146 40 -346 51 -500 6 -88 16 -216 22
-285 6 -69 12 -147 13 -175 1 -27 3 -56 4 -62 1 -10 50 -13 211 -13 l209 0 7
36 c3 19 4 57 0 82 -13 93 -54 469 -60 547 -23 293 -149 1077 -194 1205 -10
30 -25 87 -32 125 -45 246 -76 381 -126 540 -30 99 -73 247 -95 328 -40 153
-74 242 -139 362 -21 39 -43 88 -50 110 -22 71 -130 296 -160 334 -16 20 -40
62 -54 94 -26 57 -219 352 -507 772 -108 159 -171 262 -225 372 -41 83 -74
154 -74 157 0 3 -13 27 -29 53 -16 27 -48 102 -71 168 -23 66 -54 142 -67 170
-14 27 -34 72 -43 100 -99 279 -225 585 -315 765 -88 176 -287 470 -404 599
-98 107 -353 341 -371 341 -6 0 -29 17 -53 39 -23 21 -82 65 -132 96 -205 132
-277 201 -399 380 -57 82 -120 160 -193 235 -73 76 -174 219 -222 315 -45 92
-63 152 -121 395 -100 420 -134 554 -180 695 -27 83 -51 166 -55 185 -4 19
-36 107 -72 195 -47 115 -86 193 -142 280 -43 66 -92 147 -110 181 -58 111
-330 365 -514 481 -127 80 -345 173 -533 228 -178 51 -394 65 -700 45z m700
-1681 c34 -6 75 -17 91 -24 17 -7 42 -17 58 -23 15 -7 27 -16 27 -22 0 -5 19
-19 42 -31 134 -68 128 -105 -16 -116 -54 -4 -81 -2 -107 10 -19 9 -70 30
-113 47 -44 17 -95 45 -113 61 -34 29 -71 36 -165 29 -48 -3 -32 25 30 53 65
29 163 35 266 16z m-976 -37 c37 -19 41 -32 10 -32 -13 -1 -41 -12 -63 -25
-22 -14 -47 -28 -55 -31 -8 -3 -44 -20 -80 -37 -59 -28 -76 -31 -184 -35 -101
-3 -124 -1 -152 15 -41 21 -39 35 5 44 18 4 42 16 54 27 40 38 172 86 282 104
35 6 149 -13 183 -30z"/>
</g>
</svg>
